

Inspired by true events. Cast into a violent and bloody world of murder, Hereward, a novice monk, must deliver the Holy Gospel of Lindisfarne - a book of great beauty and power - to the safety of the Iona monastery, while being pursued by a Viking death squad hell- bent on its capture. On his way to the monastery, he meets a fierce and skilled swordsman who answers his prayers and dedicates his life to protecting Hereward while he delivers the book. In the midst of their journey, they are confronted by Vikings ready to kill in order to get what they want, leaving Hereward and his protector at their mercy. 



Director:
 Chris Crow 

Writers:
 Chris Crow, Graham Davidson 

Stars:
 Gareth John Bale, Ian Dicks, Richard Elfyn

Genres:
  Action |  Adventure |  Thriller 




Source: 1080p.BluRay.x264-ULSHD
 
http://www.imdb.com/title/tt2320073/

 Inspired by true events. Cast into a violent and bloody world of murder, Hereward, a novice monk, must deliver the Holy Gospel of Lindisfarne - a book of great beauty and power - to the safety of the Iona monastery, while being pursued by a Viking death squad hell- bent on its capture.

 General
 Complete name                            : A Viking Saga The Darkest Day 2013 BRRip x264 AAC-BadMeetsEvil.mp4
 Format                                   : MPEG-4
 Format profile                           : Base Media
 Codec ID                                 : isom
 File size                                : 1 024 MiB
 Duration                                 : 1h 26mn
 Overall bit rate mode                    : Variable
 Overall bit rate                         : 1 648 Kbps
 Encoded date                             : UTC 2013-06-21 17:43:19
 Tagged date                              : UTC 2013-06-21 17:43:19

 Video
 ID                                       : 1
 Format                                   : AVC
 Format/Info                              : Advanced Video Codec
 Format profile                           : High@L4.1
 Format settings, CABAC                   : Yes
 Format settings, ReFrames                : 3 frames
 Codec ID                                 : avc1
 Codec ID/Info                            : Advanced Video Coding
 Duration                                 : 1h 26mn
 Bit rate mode                            : Variable
 Bit rate                                 : 1 311 Kbps
 Maximum bit rate                         : 40.0 Mbps
 Width                                    : 720 pixels
 Height                                   : 304 pixels
 Display aspect ratio                     : 2.35:1
 Frame rate mode                          : Constant
 Frame rate                               : 25.000 fps
 Color space                              : YUV
 Chroma subsampling                       : 4:2:0
 Bit depth                                : 8 bits
 Scan type                                : Progressive
 Bits/(Pixel*Frame)                       : 0.240
 Stream size                              : 814 MiB (80%)
 Writing library                          : x264 core 133 r2334 a3ac64b

 Audio
 ID                                       : 2
 Format                                   : AAC
 Format/Info                              : Advanced Audio Codec
 Format profile                           : LC
 Codec ID                                 : 40
 Duration                                 : 1h 26mn
 Bit rate mode                            : Variable
 Bit rate                                 : 334 Kbps
 Maximum bit rate                         : 378 Kbps
 Channel(s)                               : 6 channels
 Channel positions                        : Front: L C R, Side: L R, LFE
 Sampling rate                            : 48.0 KHz
 Compression mode                         : Lossy
 Stream size                              : 207 MiB (20%)
 Language                                 : English
 Encoded date                             : UTC 2013-06-21 15:01:46
 Tagged date                              : UTC 2013-06-21 17:44:11



//bayimg.com/NAnPmaAeF
//bayimg.com/nANPoAAef
//bayimg.com/naNppaAEF

